<svg width="29" height="30" viewBox="0 0 29 30" fill="none" xmlns="http://www.w3.org/2000/svg">
<path d="M20.8606 13.1547H8.4076C7.22804 13.1547 6.0968 13.6233 5.26273 14.4573C4.42866 15.2914 3.96008 16.4227 3.96008 17.6022V22.9392C3.96008 24.1188 4.42866 25.25 5.26273 26.0841C6.0968 26.9182 7.22804 27.3867 8.4076 27.3867H20.8606C22.0402 27.3867 23.1714 26.9182 24.0055 26.0841C24.8396 25.25 25.3081 24.1188 25.3081 22.9392V17.6022C25.3081 16.4227 24.8396 15.2914 24.0055 14.4573C23.1714 13.6233 22.0402 13.1547 20.8606 13.1547V13.1547ZM14.6341 23.8287C13.9304 23.8287 13.2425 23.6201 12.6574 23.2291C12.0723 22.8381 11.6162 22.2825 11.3469 21.6323C11.0776 20.9822 11.0072 20.2668 11.1445 19.5766C11.2818 18.8864 11.6206 18.2524 12.1182 17.7548C12.6158 17.2572 13.2498 16.9184 13.94 16.7811C14.6302 16.6438 15.3456 16.7143 15.9957 16.9835C16.6458 17.2528 17.2015 17.7089 17.5925 18.294C17.9835 18.8791 18.1921 19.567 18.1921 20.2707C18.1921 21.2144 17.8173 22.1194 17.15 22.7866C16.4828 23.4539 15.5778 23.8287 14.6341 23.8287Z" fill="#FD3C4A"/>
<path d="M14.6342 22.0497C15.6167 22.0497 16.4132 21.2532 16.4132 20.2707C16.4132 19.2882 15.6167 18.4917 14.6342 18.4917C13.6517 18.4917 12.8552 19.2882 12.8552 20.2707C12.8552 21.2532 13.6517 22.0497 14.6342 22.0497Z" fill="#FD3C4A"/>
<path d="M15.2657 2.73862C15.183 2.65525 15.0846 2.58908 14.9762 2.54392C14.8678 2.49876 14.7516 2.47551 14.6342 2.47551C14.5167 2.47551 14.4005 2.49876 14.2921 2.54392C14.1837 2.58908 14.0853 2.65525 14.0026 2.73862L10.2311 6.51901C10.0589 6.68533 9.95981 6.91324 9.95564 7.15262C9.95147 7.392 10.0426 7.62323 10.2089 7.79545C10.3752 7.96766 10.6031 8.06675 10.8425 8.07092C11.0819 8.07509 11.3131 7.984 11.4853 7.81768L13.7447 5.51387V10.4862C13.7447 10.7221 13.8384 10.9484 14.0052 11.1152C14.172 11.282 14.3982 11.3757 14.6342 11.3757C14.8701 11.3757 15.0963 11.282 15.2631 11.1152C15.4299 10.9484 15.5237 10.7221 15.5237 10.4862V5.51387L17.783 7.81768C17.9487 7.98201 18.1723 8.07466 18.4057 8.07564C18.5301 8.08241 18.6546 8.06294 18.7711 8.01851C18.8875 7.97407 18.9934 7.90565 19.0817 7.81768C19.2473 7.65102 19.3403 7.42558 19.3403 7.19058C19.3403 6.95559 19.2473 6.73014 19.0817 6.56349L15.2657 2.73862Z" fill="#FD3C4A"/>
</svg>
