<svg width="318" height="282" viewBox="0 0 318 282" fill="none" xmlns="http://www.w3.org/2000/svg">
<path d="M171.877 8.87403H175.415C188.785 8.87728 201.606 14.1906 211.058 23.6455C220.511 33.1003 225.821 45.9225 225.821 59.2921V155.476H121.444V59.2921C121.444 52.6698 122.748 46.1124 125.283 39.9944C127.818 33.8764 131.533 28.3177 136.216 23.6357C140.9 18.9538 146.46 15.2403 152.578 12.7075C158.697 10.1746 165.255 8.87201 171.877 8.87403V8.87403Z" fill="#FFB494"/>
<path d="M192.583 97.5774V156.974H146.268V97.5774H192.583ZM193.811 96.35H145.041V158.201H193.811V96.35Z" fill="#CA7358"/>
<path d="M193.811 96.3469H145.041V109.133H193.811V96.3469Z" fill="#CA7358"/>
<path d="M144.78 65.4597V157.271H116.903V65.4597H144.78ZM146.007 64.2323H115.675V158.499H146.007V64.2323Z" fill="#CA7358"/>
<path d="M230.869 46.874V156.974H194.072V46.874H230.869ZM232.096 45.6466H192.844V158.201H232.096V45.6466Z" fill="#CA7358"/>
<path d="M208.8 60.6637H209.153C210.486 60.6637 211.765 61.1932 212.707 62.1358C213.65 63.0784 214.179 64.3568 214.179 65.6898V77.0187H203.771V65.6898C203.771 65.0295 203.901 64.3757 204.154 63.7657C204.407 63.1557 204.777 62.6015 205.244 62.1347C205.711 61.668 206.266 61.2978 206.876 61.0454C207.486 60.793 208.14 60.6633 208.8 60.6637V60.6637Z" fill="#CA7358"/>
<path d="M202.583 69.5837H215.37" stroke="#FFB494" stroke-width="2.35983" stroke-linecap="round" stroke-linejoin="round"/>
<path d="M208.8 90.0044H209.153C210.486 90.0044 211.765 90.534 212.707 91.4765C213.65 92.4191 214.179 93.6976 214.179 95.0306V106.359H203.771V95.0306C203.771 94.3703 203.901 93.7164 204.154 93.1064C204.407 92.4964 204.777 91.9422 205.244 91.4755C205.711 91.0087 206.266 90.6385 206.876 90.3861C207.486 90.1337 208.14 90.004 208.8 90.0044V90.0044Z" fill="#F5EBDD"/>
<path d="M202.583 98.9245H215.37" stroke="#FFB494" stroke-width="2.35983" stroke-linecap="round" stroke-linejoin="round"/>
<path d="M208.8 119.345H209.153C210.486 119.345 211.765 119.875 212.707 120.817C213.65 121.76 214.179 123.038 214.179 124.371V135.7H203.771V124.371C203.771 123.038 204.301 121.76 205.243 120.817C206.186 119.875 207.464 119.345 208.797 119.345H208.8Z" fill="#F5EBDD"/>
<path d="M202.583 128.265H215.37" stroke="#FFB494" stroke-width="2.35983" stroke-linecap="round" stroke-linejoin="round"/>
<path d="M208.8 148.686H209.153C210.486 148.686 211.765 149.215 212.707 150.158C213.65 151.101 214.179 152.379 214.179 153.712V164.12H203.771V153.712C203.771 153.052 203.901 152.398 204.154 151.788C204.407 151.178 204.777 150.624 205.244 150.157C205.711 149.69 206.266 149.32 206.876 149.068C207.486 148.815 208.14 148.685 208.8 148.686V148.686Z" fill="#30242A"/>
<path d="M232.096 45.6466H192.844V50.5531H232.096V45.6466Z" fill="#CA7358"/>
<path d="M146.007 61.8542H115.675V66.7607H146.007V61.8542Z" fill="#CA7358"/>
<path d="M164.221 120.732H153.813V134.114H164.221V120.732Z" fill="#F5EBDD"/>
<path d="M152.623 126.679H165.412" stroke="#FFB494" stroke-width="2.35983" stroke-linecap="round" stroke-linejoin="round"/>
<path d="M159.017 134.709V126.679" stroke="#FFB494" stroke-width="2.35983" stroke-linecap="round" stroke-linejoin="round"/>
<path d="M164.221 144.899H153.813V158.281H164.221V144.899Z" fill="#CA7358"/>
<path d="M152.623 150.846H165.412" stroke="#FFB494" stroke-width="2.35983" stroke-linecap="round" stroke-linejoin="round"/>
<path d="M159.017 158.876V150.846" stroke="#FFB494" stroke-width="2.35983" stroke-linecap="round" stroke-linejoin="round"/>
<path d="M183.847 120.732H173.439V134.114H183.847V120.732Z" fill="#30242A"/>
<path d="M172.252 126.679H185.038" stroke="#FFB494" stroke-width="2.35983" stroke-linecap="round" stroke-linejoin="round"/>
<path d="M178.643 134.709V126.679" stroke="#FFB494" stroke-width="2.35983" stroke-linecap="round" stroke-linejoin="round"/>
<path d="M183.847 144.899H173.439V158.281H183.847V144.899Z" fill="#F5EBDD"/>
<path d="M172.252 150.846H185.038" stroke="#FFB494" stroke-width="2.35983" stroke-linecap="round" stroke-linejoin="round"/>
<path d="M178.643 158.876V150.846" stroke="#FFB494" stroke-width="2.35983" stroke-linecap="round" stroke-linejoin="round"/>
<path d="M151.954 45.2016C156.224 45.2016 159.686 41.7397 159.686 37.4691C159.686 33.1985 156.224 29.7365 151.954 29.7365C147.683 29.7365 144.221 33.1985 144.221 37.4691C144.221 41.7397 147.683 45.2016 151.954 45.2016Z" fill="#F5EBDD"/>
<path d="M239.203 155.525H108.062V164.446H239.203V155.525Z" fill="#F5EBDD"/>
<path d="M175.704 0H171.571C138.965 0 112.533 26.4318 112.533 59.0374V164.446H234.754V59.0374C234.744 26.4318 208.309 0 175.704 0ZM169.174 155.525H121.444V81.1826H169.174V155.525ZM169.174 72.2625H121.444V59.3412C121.445 46.4348 126.394 34.02 135.274 24.6537C144.153 15.2873 156.286 9.68252 169.174 8.99369V72.2625ZM225.821 155.525H178.094V81.1826H225.821V155.525ZM225.821 72.2625H178.094V8.99369C190.982 9.68255 203.115 15.2874 211.994 24.6539C220.873 34.0203 225.822 46.4351 225.821 59.3412V72.2625Z" fill="#F5EBDD"/>
<path d="M11.8934 281.907C18.4619 281.907 23.7868 276.582 23.7868 270.013C23.7868 263.445 18.4619 258.12 11.8934 258.12C5.32486 258.12 0 263.445 0 270.013C0 276.582 5.32486 281.907 11.8934 281.907Z" fill="#FFB494"/>
<path d="M277.141 173.062C277.143 173.39 277.076 173.715 276.945 174.016C276.024 176.112 272.091 176.422 268.178 174.707C264.901 173.274 262.673 170.874 262.578 168.901V195.069H277.151V173.062H277.141Z" fill="#FFBE21"/>
<path d="M271.538 167.124C267.626 165.409 263.698 165.719 262.772 167.815C262.623 168.159 262.556 168.533 262.578 168.907C262.673 170.88 264.901 173.28 268.178 174.713C272.091 176.428 276.018 176.118 276.945 174.022C277.076 173.721 277.143 173.396 277.141 173.068C277.151 171.07 274.895 168.591 271.538 167.124Z" fill="#A15842"/>
<path d="M288.314 181.693C288.218 183.666 285.991 186.066 282.714 187.502C278.798 189.214 274.874 188.907 273.944 186.809C273.814 186.508 273.747 186.185 273.748 185.857V185.857V195.063H288.317V181.693H288.314Z" fill="#FFBE21"/>
<path d="M288.12 180.601C287.2 178.505 283.266 178.195 279.351 179.911C275.997 181.38 273.741 183.857 273.748 185.857C273.747 186.185 273.814 186.508 273.944 186.809C274.864 188.907 278.798 189.214 282.714 187.502C285.991 186.066 288.218 183.666 288.314 181.693C288.336 181.319 288.269 180.945 288.12 180.601Z" fill="#A15842"/>
<path d="M274.174 195.075V186.155" stroke="#A15842" stroke-width="2.35983" stroke-miterlimit="10" stroke-linecap="round"/>
<path d="M269.863 165.188V170.245" stroke="#30242A" stroke-width="2.35983" stroke-linecap="round" stroke-linejoin="round"/>
<path d="M281.032 177.978V183.329" stroke="#30242A" stroke-width="2.35983" stroke-linecap="round" stroke-linejoin="round"/>
<path d="M207.472 281.993C207.1 281.993 206.733 281.905 206.402 281.736C206.07 281.567 205.784 281.321 205.566 281.02C205.348 280.719 205.204 280.37 205.147 280.002C205.09 279.635 205.121 279.259 205.238 278.906L212.602 256.463C212.758 255.992 213.057 255.583 213.459 255.293C213.861 255.002 214.343 254.846 214.839 254.846H220C220.41 254.846 220.813 254.953 221.169 255.156C221.525 255.36 221.821 255.653 222.029 256.007C222.236 256.36 222.348 256.762 222.352 257.172C222.356 257.582 222.253 257.986 222.053 258.344L209.515 280.787C209.312 281.151 209.016 281.455 208.657 281.667C208.298 281.879 207.889 281.991 207.472 281.993V281.993Z" fill="#30242A"/>
<path d="M306.129 281.993C306.501 281.993 306.868 281.905 307.199 281.736C307.531 281.567 307.817 281.321 308.035 281.02C308.253 280.719 308.397 280.37 308.454 280.002C308.511 279.635 308.48 279.259 308.363 278.906L300.999 256.463C300.843 255.993 300.544 255.584 300.143 255.293C299.742 255.003 299.26 254.847 298.765 254.846H293.601C293.191 254.846 292.788 254.954 292.433 255.158C292.078 255.362 291.782 255.655 291.574 256.008C291.367 256.361 291.256 256.763 291.251 257.172C291.246 257.582 291.349 257.986 291.548 258.344L304.086 280.787C304.289 281.151 304.585 281.454 304.944 281.666C305.303 281.878 305.712 281.991 306.129 281.993V281.993Z" fill="#30242A"/>
<path d="M317.516 195.075H196.487V264.361H317.516V195.075Z" fill="#A15842"/>
<path d="M308.593 203.995H205.406V255.441H308.593V203.995Z" fill="#FFB494"/>
<path d="M256.889 203.105V256.334" stroke="#A15842" stroke-width="2.35983" stroke-miterlimit="10"/>
<path d="M269.05 232.836C270.771 232.836 272.167 231.44 272.167 229.718C272.167 227.996 270.771 226.6 269.05 226.6C267.328 226.6 265.932 227.996 265.932 229.718C265.932 231.44 267.328 232.836 269.05 232.836Z" fill="#30242A"/>
<path d="M244.95 232.836C246.672 232.836 248.067 231.44 248.067 229.718C248.067 227.996 246.672 226.6 244.95 226.6C243.228 226.6 241.832 227.996 241.832 229.718C241.832 231.44 243.228 232.836 244.95 232.836Z" fill="#30242A"/>
<path d="M47.8438 253.149V258.203H91.5572V253.149H47.8438Z" fill="#A15842"/>
<path d="M98.7588 279.378L87.9302 214.403H94.5519C95.2616 214.403 95.9421 214.121 96.4439 213.62C96.9457 213.118 97.2276 212.437 97.2276 211.728C97.2276 211.018 96.9457 210.337 96.4439 209.836C95.9421 209.334 95.2616 209.052 94.5519 209.052H44.901C44.1914 209.052 43.5108 209.334 43.009 209.836C42.5072 210.337 42.2253 211.018 42.2253 211.728C42.2253 212.437 42.5072 213.118 43.009 213.62C43.5108 214.121 44.1914 214.403 44.901 214.403H51.4706L40.642 279.378C40.5885 279.7 40.6057 280.029 40.6924 280.344C40.7792 280.658 40.9333 280.95 41.1441 281.199C41.3549 281.447 41.6174 281.647 41.9133 281.784C42.2091 281.921 42.5313 281.993 42.8574 281.993V281.993C43.37 281.993 43.8673 281.818 44.2665 281.496C44.6657 281.175 44.9427 280.726 45.0514 280.225L59.3995 214.403H80.0012L94.3464 280.225C94.4562 280.726 94.7339 281.174 95.1335 281.496C95.5331 281.817 96.0305 281.993 96.5434 281.993V281.993C96.8695 281.993 97.1916 281.921 97.4875 281.784C97.7834 281.647 98.0458 281.447 98.2567 281.199C98.4675 280.95 98.6216 280.658 98.7083 280.344C98.795 280.029 98.8123 279.7 98.7588 279.378Z" fill="#FFBE21"/>
<path d="M94.5517 214.403C95.2614 214.403 95.942 214.121 96.4438 213.62C96.9455 213.118 97.2274 212.437 97.2274 211.728C97.2274 211.018 96.9455 210.337 96.4438 209.836C95.942 209.334 95.2614 209.052 94.5517 209.052H44.9008C44.1912 209.052 43.5106 209.334 43.0088 209.836C42.507 210.337 42.2251 211.018 42.2251 211.728C42.2251 212.437 42.507 213.118 43.0088 213.62C43.5106 214.121 44.1912 214.403 44.9008 214.403H51.4704V214.486H59.3932L59.4116 214.403H80.0133L80.0317 214.486H87.9545V214.403H94.5517Z" fill="#A15842"/>
<path d="M97.4945 253.063H129.1C129.493 246.352 130.895 237.451 132.058 225.425C133.092 214.762 133.982 205.812 133.923 198.423C133.825 186.106 102.318 201.013 102.318 201.013C102.318 203.704 102.861 206.287 102.877 208.791C102.913 215.296 99.6179 220.832 97.2644 228.678C93.6958 240.574 96.6691 253.063 96.6691 253.063H97.4945Z" fill="#4856DF"/>
<path d="M130.784 278.636H103.116C102.732 278.758 102.404 279.014 102.192 279.356C101.98 279.699 101.897 280.106 101.958 280.504C102.02 280.903 102.221 281.266 102.527 281.529C102.833 281.792 103.222 281.936 103.625 281.937L144.341 281.993C144.7 278.034 142.451 275.055 136.105 270.639C132.484 273.778 130.784 278.636 130.784 278.636Z" fill="#3EC1F3"/>
<path d="M134.678 269.679C133.364 268.829 132.229 267.73 131.337 266.445C129.189 263.293 128.735 259.05 129.087 253.063H101.698C101.751 257.539 102.074 262.008 102.665 266.445C103.364 271.468 104.31 274.923 105.067 278.556H103.628C103.454 278.556 103.281 278.583 103.116 278.636H130.784C130.784 278.636 132.484 273.778 136.105 270.658C135.651 270.336 135.175 270.01 134.678 269.679Z" fill="#A15842"/>
<path d="M129.419 247.687C127.725 244.315 126.57 240.699 125.998 236.969C123.994 223.047 125.181 215.91 119.532 209.659H103.002" stroke="#30242A" stroke-width="2.35983" stroke-linecap="round" stroke-linejoin="round"/>
<path d="M139.726 254.251L139.757 254.324L164.157 242.897C162.258 237.214 160.272 229.654 157.011 219.758C153.954 210.497 151.932 203.578 150.018 198.223C147.34 200.152 144.038 201.01 140.76 200.63C137.482 200.249 134.464 198.656 132.3 196.165C130.136 193.674 128.981 190.463 129.062 187.164C129.143 183.865 130.455 180.715 132.739 178.333C119.713 172.448 73.45 168.609 73.45 168.609L47.279 164.743C45.8982 167.026 44.723 170.644 44.0847 174.869H53.2288V184.648C53.2239 186.626 52.4354 188.521 51.036 189.918C49.6367 191.315 47.7405 192.1 45.7632 192.102H45.2415C45.1188 192.102 44.996 192.102 44.8764 192.102C47.3741 201.307 53.7995 209.061 66.9141 209.061H119.845C125.494 215.305 124.307 222.443 126.311 236.371C127.949 247.764 135.715 256.162 135.715 256.162L139.726 254.251Z" fill="#4856DF"/>
<path d="M176.897 267.338L152.595 278.359C152.184 278.647 151.895 279.079 151.787 279.569C151.679 280.059 151.76 280.572 152.012 281.006C152.265 281.44 152.671 281.763 153.151 281.911C153.631 282.059 154.149 282.021 154.602 281.805L191.479 264.622C190.034 260.633 186.318 259.099 177.514 257.564L177.137 257.494C176.407 260.727 176.326 264.073 176.897 267.338Z" fill="#3EC1F3"/>
<path d="M177.137 257.482C174.602 256.997 172.614 256.153 170.972 254.876C167.947 252.52 166.093 248.684 164.157 242.909L139.757 254.336C141.825 259.09 144.728 264.088 147.492 268.451C149.907 272.25 152.212 275.561 153.761 277.78L152.88 278.206C152.78 278.255 152.685 278.312 152.595 278.378L176.897 267.356C176.322 264.081 176.403 260.725 177.137 257.482V257.482Z" fill="#A15842"/>
<path d="M142.291 200.724C145.066 200.726 147.77 199.851 150.018 198.223C146.21 187.52 142.908 183.062 132.923 178.416L132.739 178.333C130.944 180.205 129.739 182.563 129.273 185.114C128.807 187.665 129.102 190.297 130.119 192.682C131.137 195.067 132.834 197.1 134.998 198.529C137.162 199.958 139.698 200.719 142.291 200.718V200.724Z" fill="#3EC1F3"/>
<path d="M45.7631 192.102C47.7442 192.102 49.6442 191.315 51.0454 189.914C52.4465 188.514 53.234 186.614 53.2349 184.633V174.854H44.0908C43.2838 180.159 43.3298 186.4 44.8763 192.092C44.996 192.092 45.1187 192.092 45.2415 192.092L45.7631 192.102Z" fill="#3EC1F3"/>
<path d="M119.394 209.795H128.314" stroke="#30242A" stroke-width="2.35983" stroke-linecap="round" stroke-linejoin="round"/>
<path d="M157.762 115.23C157.762 115.23 141.705 96.7949 122.733 90.1087" stroke="#30242A" stroke-width="2.35983" stroke-linecap="round" stroke-linejoin="round"/>
<path d="M107.397 97.3105C106.814 95.902 108.759 93.6927 111.999 91.8271C107.611 90.7347 104.494 88.7003 104.807 86.9912C105.12 85.2821 108.753 84.4781 113.245 85.0059C110.882 82.1215 109.842 79.366 110.885 78.2553C112.214 76.8346 116.43 78.6265 120.299 82.2443C123.675 85.4048 125.669 88.9213 125.246 90.7102C125.01 92.5329 121.901 95.1165 117.63 96.8839C112.717 98.9214 108.142 99.1117 107.397 97.3105Z" fill="#3546AB"/>
<path d="M125.405 96.4359C128.5 96.4359 131.008 93.9274 131.008 90.8329C131.008 87.7384 128.5 85.2299 125.405 85.2299C122.311 85.2299 119.802 87.7384 119.802 90.8329C119.802 93.9274 122.311 96.4359 125.405 96.4359Z" fill="#30242A"/>
<path d="M137.211 98.0491C138.75 97.4775 138.051 91.7686 135.648 85.2978C133.245 78.8271 130.05 74.0449 128.51 74.6165C126.971 75.1881 127.671 80.897 130.073 87.3677C132.476 93.8385 135.671 98.6207 137.211 98.0491Z" fill="#30242A"/>
<path d="M136.937 99.173C136.937 99.173 139.318 105.715 138.127 112.555" stroke="#30242A" stroke-width="2.35983" stroke-linecap="round" stroke-linejoin="round"/>
<path d="M93.5148 73.1155C88.4396 78.826 83.0452 80.0871 83.0452 80.0871C79.5564 76.2822 73.2261 76.2822 72.2595 81.6735C71.207 87.6478 78.5959 89.2925 78.5959 89.2925C78.5959 89.2925 80.4585 97.0005 77.6017 100.808C75.0795 104.184 71.8391 104.739 65.199 105.482C73.8521 120.103 82.6893 118.949 85.6319 118.949C92.6894 118.949 94.6778 110.76 95.2332 106.537C93.6262 105.977 91.9867 105.515 90.3236 105.153L89.3724 99.4461C89.3724 99.4461 93.8125 101.029 97.6204 98.8109C101.428 96.5924 102.38 92.4653 101.109 86.1228C100.358 82.3639 100.385 77.7152 99.7408 73.5605C97.2277 73.987 93.5148 73.1155 93.5148 73.1155Z" fill="#A15842"/>
<path d="M146.305 104.972C144.958 99.5811 134.411 96.6569 134.411 96.6569C134.411 96.6569 135.044 84.5548 132.328 84.1682C130.247 83.8613 128.164 88.9274 126.381 98.7404C124.387 109.707 125.488 129.962 125.488 129.962C125.488 129.962 123.282 127.958 120.152 125.169C119.84 125.801 119.36 126.336 118.765 126.714C118.169 127.093 117.482 127.302 116.777 127.317C117.222 127.881 117.501 128.558 117.582 129.272C117.663 129.986 117.543 130.708 117.236 131.358C116.929 132.008 116.447 132.558 115.844 132.949C115.241 133.339 114.54 133.553 113.822 133.568C114.267 134.132 114.546 134.809 114.627 135.523C114.708 136.236 114.588 136.959 114.281 137.608C113.974 138.258 113.492 138.809 112.889 139.199C112.286 139.59 111.585 139.804 110.867 139.818C111.334 140.41 111.617 141.126 111.682 141.878C111.747 142.629 111.59 143.383 111.231 144.046C110.872 144.709 110.326 145.253 109.662 145.609C108.997 145.966 108.243 146.12 107.492 146.053C114.006 150.294 122.862 155.24 128.762 155.24C159.686 155.228 147.198 108.541 146.305 104.972Z" fill="#A15842"/>
<path d="M111.315 143.847C111.622 143.197 111.742 142.475 111.661 141.761C111.58 141.048 111.302 140.37 110.858 139.806C111.576 139.792 112.276 139.577 112.88 139.187C113.483 138.797 113.965 138.246 114.272 137.596C114.579 136.947 114.699 136.224 114.618 135.51C114.537 134.796 114.258 134.119 113.813 133.555C114.531 133.541 115.231 133.327 115.835 132.937C116.438 132.546 116.92 131.995 117.227 131.346C117.534 130.696 117.654 129.974 117.573 129.26C117.492 128.546 117.213 127.869 116.768 127.305C117.473 127.289 118.16 127.081 118.755 126.702C119.35 126.324 119.83 125.789 120.143 125.157C114.749 120.352 106.614 113.227 102.285 110.026C100.189 108.477 97.5192 107.329 95.2271 106.537C94.687 110.772 92.7109 118.949 85.6534 118.949C82.7231 118.949 73.8736 120.103 65.2205 105.482L62.4405 105.789C52.8668 106.853 48.5096 112.005 45.9444 118.161C44.358 121.969 43.0876 128.946 43.0876 128.946C42.1034 135.344 41.5967 141.805 41.5718 148.278L54.0206 159.8L87.4424 160.625C90.1181 156.679 95.0276 149.392 96.6478 146.596C98.7282 143.028 99.0259 140.054 99.0259 140.054C99.0259 140.054 102.598 142.847 107.492 146.035C108.276 146.103 109.063 145.931 109.746 145.54C110.43 145.149 110.977 144.558 111.315 143.847V143.847Z" fill="#FFBE21"/>
<path d="M97.0068 66.1348C93.2019 61.3786 82.7322 58.2058 74.4842 64.2323C66.2361 70.2588 66.8713 80.0932 67.1874 83.9012C67.1874 83.9012 58.3072 81.0445 51.9616 87.7061C50.1251 89.6106 48.7877 91.9394 48.0682 94.4854C47.3487 97.0314 47.2695 99.7158 47.8376 102.3C47.8376 102.3 36.1528 101.971 33.8791 112.769C32.5873 118.906 34.9991 122.99 37.6748 125.519C39.2441 126.991 41.0774 128.154 43.0784 128.946C43.0784 128.946 44.3487 121.969 45.9351 118.161C48.5004 112.005 52.8576 106.853 62.4312 105.789L65.2113 105.482C71.8515 104.739 75.0918 104.175 77.614 100.809C80.4677 97.0005 78.596 89.2925 78.596 89.2925C78.596 89.2925 71.1979 87.6478 72.2504 81.6797C73.2047 76.2883 79.5472 76.2883 83.036 80.0932C83.036 80.0932 88.4304 78.826 93.5057 73.1155C93.5057 73.1155 97.2185 73.987 99.75 73.5605C99.3173 70.7007 98.5564 68.0771 97.0068 66.1348Z" fill="#30242A"/>
<path d="M146.964 109.21C146.065 108.796 145.528 107.752 145.682 105.758C145.682 105.758 143.822 108.09 141.843 107.053C139.864 106.016 140.656 103.782 140.656 103.782C140.656 103.782 138.87 104.972 137.385 103.475C136.038 102.128 137.078 99.9064 137.078 99.9064C137.078 99.9064 135.102 100.713 134.402 99.3111C133.521 97.5559 134.592 95.7179 135.752 94.3095" stroke="#30242A" stroke-width="4.71967" stroke-linecap="round" stroke-linejoin="round"/>
<path d="M47.2729 102.558C47.6091 104.147 48.2152 105.668 49.0649 107.053" stroke="black" stroke-width="2.35983" stroke-miterlimit="10" stroke-linecap="round"/>
<path d="M124.893 130.346L125.639 139.615" stroke="#30242A" stroke-width="2.35983" stroke-linecap="round" stroke-linejoin="round"/>
<path d="M97.9824 129.796C99.9248 133.294 99.9002 137.492 99.6486 139.981" stroke="#30242A" stroke-width="2.35983" stroke-linecap="round" stroke-linejoin="round"/>
<path d="M80.437 139.615L70.9216 139.913" stroke="#30242A" stroke-width="2.35983" stroke-linecap="round" stroke-linejoin="round"/>
<path d="M89.2096 100.032C87.8798 99.5102 86.5826 98.9087 85.325 98.231" stroke="#30242A" stroke-width="2.35983" stroke-linecap="round" stroke-linejoin="round"/>
<path d="M91.5877 108.839L91.0691 105.552" stroke="#30242A" stroke-width="2.35983" stroke-linecap="round" stroke-linejoin="round"/>
<path d="M66.5459 84.0209L67.2056 89.5073" stroke="black" stroke-width="2.35983" stroke-miterlimit="10" stroke-linecap="round"/>
<path d="M97.9824 90.5506C97.3104 90.9863 95.0827 91.1305 94.0149 89.1882" stroke="#30242A" stroke-width="2.35983" stroke-linecap="round" stroke-linejoin="round"/>
<path d="M80.1394 84.3032L77.166 82.8181" stroke="#30242A" stroke-width="2.35983" stroke-linecap="round" stroke-linejoin="round"/>
<path d="M93.8675 82.9868C93.3919 83.6343 91.1488 84.8893 89.4612 83.4563" stroke="#30242A" stroke-width="2.35983" stroke-linecap="round" stroke-linejoin="round"/>
<path d="M101.094 82.0509C100.739 82.1264 100.372 82.1311 100.015 82.0648C99.6582 81.9984 99.3178 81.8624 99.0134 81.6643" stroke="#30242A" stroke-width="2.35983" stroke-linecap="round" stroke-linejoin="round"/>
<path d="M97.0711 83.1556C97.4117 83.9258 97.74 84.7757 97.6694 85.101C97.5647 85.4966 97.3289 85.8449 97.0005 86.089" stroke="#30242A" stroke-width="2.35983" stroke-linecap="round" stroke-linejoin="round"/>
<path d="M78.51 87.8964L74.4504 91.7258C74.2306 91.9331 74.0676 92.1932 73.977 92.4814C73.8863 92.7695 73.871 93.0761 73.9326 93.3719C73.9941 93.6676 74.1305 93.9426 74.3285 94.1707C74.5266 94.3988 74.7799 94.5723 75.0641 94.6746L79.8632 96.3776C80.1484 96.4785 80.4548 96.5045 80.7529 96.453C81.051 96.4016 81.331 96.2745 81.5659 96.0839C81.8009 95.8933 81.983 95.6455 82.0948 95.3644C82.2066 95.0833 82.2443 94.7781 82.2044 94.4782L81.4649 88.955C81.4217 88.6339 81.291 88.3309 81.0872 88.0791C80.8835 87.8273 80.6144 87.6363 80.3094 87.527C80.0044 87.4178 79.6753 87.3945 79.3579 87.4596C79.0406 87.5247 78.7473 87.6758 78.51 87.8964V87.8964Z" fill="#F4E6D8"/>
<path d="M136.789 88.9151C136.789 88.9151 138.87 87.7245 140.656 88.3198C143.417 89.2404 143.012 91.8117 143.012 91.8117C143.012 91.8117 146.885 90.4156 147.636 94.5089C147.636 94.5089 151.128 95.2914 150.343 98.7833C150.343 98.7833 153.169 98.9337 152.607 102.637C152.046 106.341 149.576 109.419 148.09 109.419C146.556 109.419 145.473 108.477 145.682 105.736C145.682 105.736 143.822 108.069 141.843 107.031C139.864 105.994 140.656 103.76 140.656 103.76C140.656 103.76 138.87 104.951 137.385 103.454C136.038 102.106 137.078 99.8849 137.078 99.8849C137.078 99.8849 135.102 100.692 134.402 99.2896C132.914 96.3163 137.007 93.1189 137.673 92.1554L136.789 88.9151Z" fill="#A15842"/>
<path d="M135.906 100.968C137.949 99.0932 141.429 95.5553 143.08 91.8424" stroke="#30242A" stroke-width="2.35983" stroke-linecap="round" stroke-linejoin="round"/>
<path d="M139.658 105.249C143.055 102.361 145.827 98.8107 147.805 94.8158" stroke="#30242A" stroke-width="2.35983" stroke-linecap="round" stroke-linejoin="round"/>
<path d="M144.915 107.452C145.835 106.329 149.054 102.294 150.65 99.0994" stroke="#30242A" stroke-width="2.35983" stroke-linecap="round" stroke-linejoin="round"/>
<path d="M144.338 175.747H92.8367L104.543 138.762C104.889 137.674 105.573 136.723 106.495 136.049C107.418 135.375 108.531 135.012 109.673 135.013H153.194C154.039 135.012 154.873 135.211 155.627 135.594C156.381 135.976 157.035 136.531 157.535 137.213C158.035 137.895 158.366 138.685 158.504 139.519C158.641 140.354 158.579 141.209 158.324 142.015L148.643 172.598C148.352 173.512 147.778 174.309 147.004 174.875C146.23 175.441 145.297 175.746 144.338 175.747V175.747Z" fill="#30242A"/>
<path d="M62.9465 171.583C62.7945 172.062 62.7577 172.57 62.8389 173.066C62.9201 173.562 63.1171 174.032 63.4139 174.438C63.7107 174.843 64.099 175.173 64.5472 175.401C64.9954 175.628 65.4909 175.747 65.9935 175.747H144.338C145.296 175.744 146.228 175.438 147 174.871C147.773 174.304 148.345 173.506 148.634 172.592L148.94 171.583H62.9465Z" fill="#30242A"/>
<path d="M136.449 152.196C135.252 150.558 129.812 154.884 129.413 155.243C129.204 154.884 126.375 150.558 124.298 152.196C122.496 153.617 126.446 159.959 127.51 161.577C127.554 161.626 127.608 161.665 127.669 161.692C127.729 161.719 127.794 161.733 127.86 161.733C127.926 161.733 127.991 161.719 128.052 161.692C128.112 161.665 128.166 161.626 128.21 161.577C130.146 159.944 137.489 153.602 136.449 152.196Z" fill="#FFBE21"/>
<path d="M131.478 151.038C131.91 149.65 131.892 148.41 131.437 148.268C130.983 148.126 130.264 149.137 129.831 150.525C129.399 151.914 129.417 153.154 129.872 153.295C130.326 153.437 131.045 152.426 131.478 151.038Z" fill="#FFBE21"/>
<path d="M33.4371 142.214C34.1056 142.472 34.8325 142.539 35.5368 142.408C36.2411 142.277 36.8952 141.953 37.4262 141.472C37.4891 142.188 37.7512 142.873 38.1828 143.449C38.6143 144.024 39.1982 144.467 39.8685 144.728C40.5387 144.989 41.2686 145.058 41.9757 144.926C42.6828 144.794 43.3389 144.467 43.87 143.982C43.9345 144.698 44.1976 145.381 44.6296 145.955C45.0615 146.53 45.6452 146.972 46.3149 147.232C46.9846 147.493 47.7137 147.561 48.4202 147.43C49.1267 147.299 49.7825 146.973 50.3137 146.489C50.3629 147.054 50.5362 147.601 50.8212 148.091C51.1061 148.582 51.4958 149.003 51.9624 149.325C52.429 149.648 52.961 149.863 53.5204 149.956C54.0798 150.05 54.6529 150.018 55.1988 149.864L59.8383 137.403C61.6252 132.62 62.4722 127.536 62.333 122.432L61.8635 105.862C61.8635 105.862 51.1576 106.752 44.9132 114.485C41.7098 118.452 35.4225 128.934 31.3936 140.33C31.8169 141.191 32.5455 141.862 33.4371 142.214V142.214Z" fill="#FFBE21"/>
<path d="M52.7655 149.741C52.0935 149.483 51.5074 149.041 51.0735 148.466C50.6397 147.891 50.3755 147.206 50.3107 146.489C49.7795 146.973 49.1237 147.299 48.4172 147.43C47.7107 147.561 46.9816 147.493 46.3119 147.232C45.6422 146.972 45.0585 146.53 44.6265 145.955C44.1946 145.381 43.9315 144.698 43.8669 143.982C43.3359 144.467 42.6798 144.794 41.9727 144.926C41.2656 145.058 40.5357 144.989 39.8655 144.728C39.1952 144.467 38.6113 144.024 38.1798 143.449C37.7482 142.873 37.4861 142.188 37.4232 141.472C36.9814 141.874 36.4524 142.168 35.8776 142.332C35.3029 142.495 34.6981 142.522 34.111 142.412C33.5238 142.301 32.9703 142.056 32.494 141.696C32.0176 141.335 31.6315 140.869 31.366 140.333C27.8741 150.211 26.0759 160.779 29.4574 168.385C36.7358 184.768 58.5803 179.002 63.7353 177.487C68.8903 175.971 78.9058 170.813 85.5798 171.724C92.2537 172.635 99.8359 175.971 101.051 171.724C101.051 171.724 105.135 171.62 103.849 167.735C103.849 167.735 105.902 167.48 106.206 165.964C106.82 162.93 99.5321 160.202 99.5321 160.202C99.5321 160.202 105.298 161.122 106.51 159.895C108.044 158.361 106.553 155.885 97.1356 153.602C86.7918 151.098 73.1402 152.614 52.8146 156.253L55.1927 149.861C54.3921 150.086 53.5401 150.044 52.7655 149.741V149.741Z" fill="#A15842"/>
<path d="M59.918 135.749L53.1274 155.572" stroke="#30242A" stroke-width="2.35983" stroke-linecap="round" stroke-linejoin="round"/>
<path d="M101.364 160.42C98.0685 159.168 92.582 157.247 88.323 156.553" stroke="#30242A" stroke-width="2.35983" stroke-linecap="round" stroke-linejoin="round"/>
<path d="M103.935 167.575C99.7008 165.67 91.6123 162.212 87.2612 161.561" stroke="#30242A" stroke-width="2.35983" stroke-linecap="round" stroke-linejoin="round"/>
<path d="M52.8636 155.614C50.5807 155.983 46.9967 156.593 43.4158 157.308" stroke="#30242A" stroke-width="2.35983" stroke-linecap="round" stroke-linejoin="round"/>
<path d="M100.925 172.141C97.7493 170.524 91.057 167.308 86.353 166.412" stroke="#30242A" stroke-width="2.35983" stroke-linecap="round" stroke-linejoin="round"/>
<path d="M243.066 132.988C243.066 132.988 240.654 138.413 234.327 138.413C228 138.413 225.576 132.988 225.576 132.988C225.576 132.988 207.779 173.676 225.269 195.075H243.351C260.833 173.676 243.066 132.988 243.066 132.988Z" fill="#3EC1F3"/>
<path d="M234.312 138.413C240.639 138.413 243.051 132.988 243.051 132.988H225.56C225.56 132.988 227.981 138.413 234.312 138.413Z" fill="#30242A"/>
<path d="M250.657 169.211C240.82 169.386 229.178 172.939 220.218 185.474" stroke="#F5EBDD" stroke-width="2.35983" stroke-linecap="round" stroke-linejoin="round"/>
<path d="M218.644 159.254C225.247 157.643 237.751 156.109 249.872 158.993" stroke="#F5EBDD" stroke-width="2.35983" stroke-linecap="round" stroke-linejoin="round"/>
<path d="M249.816 179.656C245.416 179.708 237.282 184.694 238.178 194.744" stroke="#F5EBDD" stroke-width="2.35983" stroke-linecap="round" stroke-linejoin="round"/>
<path d="M233.204 136.608C233.02 132.236 231.857 114.859 224.953 104.666" stroke="#30242A" stroke-width="2.35983" stroke-miterlimit="10" stroke-linecap="round"/>
<path d="M231.765 123.247C232.647 121.751 227.969 117.355 221.314 113.429C214.66 109.503 208.55 107.534 207.668 109.03C206.785 110.526 211.464 114.921 218.118 118.847C224.772 122.773 230.882 124.743 231.765 123.247Z" fill="#30242A"/>
<path d="M229.181 79.8819C230.477 79.1432 229.811 75.5346 227.694 71.8217C225.577 68.1088 222.81 65.6978 221.515 66.4364C220.219 67.1751 220.885 70.7837 223.002 74.4966C225.119 78.2095 227.885 80.6205 229.181 79.8819Z" fill="#30242A"/>
<path d="M206.391 95.6228C207.088 94.0732 210.365 93.9597 214.348 95.1472C211.893 90.7562 211.141 86.6721 212.765 85.6196C214.388 84.5671 217.818 86.896 220.829 90.9372C221.359 86.8163 222.796 83.8797 224.511 83.8613C226.677 83.8613 228.451 88.6389 228.472 94.5488C228.485 96.2388 228.335 97.9261 228.024 99.5872C227.08 99.1546 226.042 98.9649 225.005 99.0353C223.969 99.1057 222.966 99.434 222.089 99.9904C221.211 100.547 220.487 101.314 219.981 102.221C219.476 103.129 219.205 104.148 219.193 105.187C217.604 104.798 216.055 104.261 214.566 103.585C209.156 101.164 205.505 97.602 206.391 95.6228Z" fill="#3546AB"/>
<path d="M222.019 100.032C222.9 99.4599 223.911 99.1195 224.958 99.0428C226.005 98.9661 227.055 99.1555 228.009 99.5934C227.481 102.34 226.527 104.377 225.379 105.04C224.287 105.835 221.973 105.865 219.178 105.193C219.189 104.166 219.455 103.156 219.951 102.256C220.446 101.356 221.157 100.592 222.019 100.032V100.032Z" fill="#30242A"/>
<path d="M235.505 136.344C236.352 131.515 240.761 107.835 247.819 94.4384" stroke="#30242A" stroke-width="2.35983" stroke-miterlimit="10" stroke-linecap="round"/>
<path d="M271.64 127.255C272.148 125.688 265.368 122.088 256.498 119.214C247.628 116.341 240.026 115.282 239.518 116.849C239.01 118.416 245.79 122.016 254.66 124.889C263.53 127.763 271.132 128.822 271.64 127.255Z" fill="#30242A"/>
<path d="M246.49 73.6801C248.184 73.5267 249.89 76.3282 250.808 80.3817C253.422 76.0858 256.619 73.4285 258.335 74.3276C260.05 75.2267 259.7 79.3568 257.653 83.9626C261.507 82.4069 264.782 82.2105 265.631 83.6895C266.699 85.5735 263.401 89.4674 258.267 92.3825C256.803 93.2217 255.262 93.9184 253.664 94.4629C253.577 93.4288 253.233 92.4328 252.663 91.5652C252.094 90.6976 251.317 89.9858 250.403 89.4943C249.488 89.0029 248.466 88.7472 247.428 88.7506C246.391 88.7539 245.37 89.0161 244.459 89.5135C244.021 87.9367 243.728 86.3231 243.584 84.6929C243.017 78.8076 244.333 73.8765 246.49 73.6801Z" fill="#3546AB"/>
<path d="M250.317 89.4582C251.247 89.9451 252.04 90.6591 252.621 91.534C253.202 92.4089 253.552 93.4164 253.64 94.4629C250.986 95.3497 248.73 95.5185 247.601 94.8434C246.374 94.2819 245.211 92.2782 244.425 89.5135C245.326 89.0188 246.336 88.7549 247.364 88.7453C248.392 88.7356 249.406 88.9806 250.317 89.4582Z" fill="#30242A"/>
<path d="M264.785 101.772V101.797C263.342 102.392 262.174 103.506 261.512 104.92C260.85 106.333 260.741 107.944 261.208 109.433C261.675 110.923 262.683 112.183 264.034 112.966C265.384 113.749 266.979 113.997 268.504 113.662V113.687C260.418 116.218 253.029 115.605 251.998 112.312C250.967 109.02 256.699 104.303 264.785 101.772Z" fill="#3546AB"/>
<path d="M262.861 112.091C263.57 111.807 264.145 111.266 264.472 110.575C264.799 109.884 264.852 109.096 264.622 108.368C264.392 107.639 263.895 107.025 263.231 106.647C262.567 106.269 261.785 106.157 261.041 106.332C261.245 105.326 261.694 104.386 262.348 103.595C263.002 102.803 263.841 102.186 264.791 101.797L268.51 113.662C267.511 113.883 266.474 113.855 265.489 113.581C264.504 113.307 263.602 112.796 262.861 112.091Z" fill="#FFB494"/>
<path d="M264.61 108.378C264.837 109.104 264.784 109.888 264.46 110.576C264.136 111.264 263.565 111.805 262.861 112.091C262.095 111.364 261.526 110.454 261.208 109.446C260.889 108.439 260.832 107.367 261.041 106.332C261.784 106.162 262.564 106.278 263.226 106.657C263.887 107.036 264.381 107.651 264.61 108.378V108.378Z" fill="#30242A"/>
</svg>
