<svg width="23" height="26" viewBox="0 0 23 26" fill="none" xmlns="http://www.w3.org/2000/svg">
<path d="M17.8066 11.2652H5.35358C4.17401 11.2652 3.04274 11.7338 2.20874 12.5679C1.37466 13.4019 0.906067 14.5331 0.906067 15.7127V21.0497C0.906067 22.2293 1.37466 23.3606 2.20874 24.1946C3.04274 25.0287 4.17401 25.4972 5.35358 25.4972H17.8066C18.9862 25.4972 20.1175 25.0287 20.9515 24.1946C21.7855 23.3606 22.2541 22.2293 22.2541 21.0497V15.7127C22.2541 14.5331 21.7855 13.4019 20.9515 12.5679C20.1175 11.7338 18.9862 11.2652 17.8066 11.2652ZM11.5801 21.9392C10.8764 21.9392 10.1885 21.7306 9.60336 21.3396C9.01824 20.9487 8.5622 20.3929 8.29294 19.7428C8.0236 19.0926 7.95315 18.3773 8.09049 17.6871C8.22774 16.9969 8.56664 16.3629 9.06423 15.8654C9.56182 15.3678 10.1958 15.0289 10.8859 14.8916C11.5762 14.7543 12.2915 14.8247 12.9417 15.0941C13.5918 15.3633 14.1476 15.8194 14.5385 16.4045C14.9294 16.9896 15.1381 17.6775 15.1381 18.3812C15.1381 19.3249 14.7633 20.2299 14.096 20.8971C13.4288 21.5644 12.5238 21.9392 11.5801 21.9392Z" fill="#00A86B"/>
<path d="M11.5801 20.1602C12.5626 20.1602 13.3591 19.3638 13.3591 18.3812C13.3591 17.3987 12.5626 16.6022 11.5801 16.6022C10.5975 16.6022 9.80109 17.3987 9.80109 18.3812C9.80109 19.3638 10.5975 20.1602 11.5801 20.1602Z" fill="#00A86B"/>
<path d="M11.5801 0.591156C11.3442 0.591156 11.1179 0.68491 10.9511 0.851691C10.7844 1.01847 10.6906 1.24476 10.6906 1.48066V6.45298L8.43127 4.19364C8.26111 4.04794 8.0422 3.9718 7.81831 3.98043C7.59452 3.98906 7.3821 4.08183 7.22368 4.24025C7.06526 4.39867 6.97248 4.61109 6.96386 4.83489C6.95523 5.05877 7.03137 5.27768 7.17707 5.44784L10.9486 9.22823C11.0305 9.30828 11.1272 9.3717 11.2332 9.41502C11.343 9.46154 11.4609 9.48547 11.5801 9.48547C11.6993 9.48547 11.8173 9.46154 11.927 9.41502C12.033 9.3717 12.1296 9.30828 12.2117 9.22823L16.0276 5.44784C16.1733 5.27768 16.2495 5.05877 16.2408 4.83489C16.2322 4.61109 16.1394 4.39867 15.981 4.24025C15.8226 4.08183 15.6102 3.98906 15.3863 3.98043C15.1625 3.9718 14.9436 4.04794 14.7734 4.19364L12.4696 6.45298V1.48066C12.4696 1.24476 12.3759 1.01847 12.2091 0.851691C12.0423 0.68491 11.816 0.591156 11.5801 0.591156Z" fill="#00A86B"/>
</svg>
